<?xml version="1.0" encoding="utf-8"?>
<!-- Generator: Adobe Illustrator 23.0.1, SVG Export Plug-In . SVG Version: 6.00 Build 0)  -->
<svg version="1.1" id="Layer_1" xmlns="http://www.w3.org/2000/svg" xmlns:xlink="http://www.w3.org/1999/xlink" x="0px" y="0px"
	 viewBox="0 0 792 568" style="enable-background:new 0 0 792 568;" xml:space="preserve">
<style type="text/css">
	.st0{display:none;}
	.st1{display:inline;}
	.st2{display:inline;clip-path:url(#SVGID_2_);fill:url(#SVGID_3_);}
	.st3{clip-path:url(#SVGID_5_);fill:url(#SVGID_6_);}
</style>
<g class="st0">
	<defs>
		<path id="SVGID_1_" d="M505.5,233.5c-1-11-10-45-46-47s-65,25-65,25s0,0.02,0,0.06c-4-3.46-32.4-26.91-65.76-25.06
			c-36,2-45,36-46,47s3,44,34,89s75,88,75,88S393,412,395,411c0.01-0.01,0.03-0.03,0.04-0.06c1.13-0.13,1.46-0.44,1.46-0.44
			s44-43,75-88S506.5,244.5,505.5,233.5z"/>
	</defs>
	<clipPath id="SVGID_2_" class="st1">
		<use xlink:href="#SVGID_1_"  style="overflow:visible;"/>
	</clipPath>
	<linearGradient id="SVGID_3_" gradientUnits="userSpaceOnUse" x1="443.6658" y1="188.5197" x2="445.3831" y2="409.7797">
		<stop  offset="0" style="stop-color:#0052BD"/>
		<stop  offset="0.2889" style="stop-color:#0052BD"/>
		<stop  offset="0.6829" style="stop-color:#F5D908"/>
		<stop  offset="1" style="stop-color:#FFDF00"/>
	</linearGradient>
	<rect x="277" y="180" class="st2" width="335" height="232"/>
</g>
<g>
	<defs>
		<path id="SVGID_4_" d="M505.5,49.5c-1-11-10-45-46-47s-65,25-65,25s0,0.02,0,0.06c-4-3.46-32.4-26.91-65.76-25.06
			c-36,2-45,36-46,47s3,44,34,89s75,88,75,88S393,228,395,227c0.01-0.01,0.03-0.03,0.04-0.06c1.13-0.13,1.46-0.44,1.46-0.44
			s44-43,75-88S506.5,60.5,505.5,49.5z"/>
	</defs>
	<clipPath id="SVGID_5_">
		<use xlink:href="#SVGID_4_"  style="overflow:visible;"/>
	</clipPath>
	<linearGradient id="SVGID_6_" gradientUnits="userSpaceOnUse" x1="443.6658" y1="4.5197" x2="445.3831" y2="225.7797">
		<stop  offset="0" style="stop-color:#0052BD"/>
		<stop  offset="0.2889" style="stop-color:#0052BD"/>
		<stop  offset="0.6829" style="stop-color:#F5D908"/>
		<stop  offset="1" style="stop-color:#FFDF00"/>
	</linearGradient>
	<rect x="277" y="-4" class="st3" width="335" height="232"/>
</g>
<g>
	<polygon points="111,321 106,321 98,321 68,408 38,321 30,321 29,321 5,321 5,441 30,441 30,358 60,441 77,441 106,357.87 106,441 
		131,441 131,321 	"/>
	<path d="M199,319.99c-34,0-51,27.31-51,61c0,33.69,16,61,51,61c35,1,51-27.31,51-61C250,347.3,234,319.99,199,319.99z M199,422.01
		c-19,0-26-18.36-26-41s8-41,26-41c21,1,26,18.36,26,41S220,422.01,199,422.01z"/>
	<path d="M189,477.78c-24.67,0-37,19.81-37,44.25c0,24.44,11.61,44.25,37,44.25c25.39,0.73,37-19.81,37-44.25
		C226,497.59,214.39,477.78,189,477.78z M189,551.79c-13.78,0-18.86-13.32-18.86-29.75c0-16.43,5.8-29.75,18.86-29.75
		c15.24,0.73,18.86,13.32,18.86,29.75C207.86,538.47,204.24,551.79,189,551.79z"/>
	<path d="M514,319.99c-34,0-51,27.31-51,61c0,33.69,16,61,51,61c35,1,51-27.31,51-61C565,347.3,549,319.99,514,319.99z M514,422.01
		c-19,0-26-18.36-26-41s8-41,26-41c21,1,26,18.36,26,41S535,422.01,514,422.01z"/>
	<polygon points="292,421 292,321 267,321 267,421 267,441 292,441 344,441 344,421 	"/>
	<path d="M449.25,380.25c-1-62-56-58-56-58h-35v119h37C395.25,441.25,450.25,442.25,449.25,380.25z M399.83,421.75h-17.07v-80.02
		h16.15c0,0,25.38-2.69,25.84,39C425.21,422.42,399.83,421.75,399.83,421.75z"/>
	<polygon points="573,321 614,441 639,441 681,321 654,321 626.5,411.5 599.5,320.5 	"/>
	<path d="M768,441h25l-44-120h-22l-45,120h25l8.52-25h44.24L768,441z M722.33,396L738,350l15.16,46H722.33z"/>
	<path d="M543.98,564H562l-31.71-85h-15.86L482,564h18.02l6.14-17.71h31.89L543.98,564z M511.07,532.13l11.29-32.58l10.93,32.58
		H511.07z"/>
	<polygon points="480,493 480,479 421,479 421,492 421,493 421,513 421,527 421,550 421,551 421,564 480,564 480,550 439,550 
		439,527 473,527 473,513 439,513 439,493 	"/>
	<polygon points="707,493 707,479 648,479 648,492 648,493 648,513 648,527 648,550 648,551 648,564 707,564 707,550 666,550 
		666,527 700,527 700,513 666,513 666,493 	"/>
	<polygon points="145,493 145,479 89,479 89,492 89,493 89,515 89,529 89,565 107,565 107,529 141,529 141,515 107,515 107,493 	"/>
	<path d="M286,529c0,0,15-4,15-24s-17-26-26-26s-37,0-37,0v85h17v-31h15l15,31h20L286,529z M272,519h-17v-26h18c0,0,11,0,11,13
		S272,519,272,519z"/>
	<path d="M381,479c-4,0-37,0-37,0v85h18v-30h21c0,0,27,0,27-26S385,479,381,479z M382,520h-20v-27c0,0,15,0,18,0s11,3,12,14
		S382,520,382,520z"/>
	<path d="M619,508h18c0,0-1-30-34-30s-36,30-36,44s3,43,36,44s34-30,34-30l-17.5-0.5c0,0,0,16-16,16s-18-12-18-29s2-31,17-30
		C616.5,491.5,618.5,500.5,619,508z"/>
</g>
</svg>
